<?xml version="1.0" encoding="UTF-8" standalone="no"?>
<!-- Created with Inkscape (http://www.inkscape.org/) -->

<svg
   width="65.221939mm"
   height="55.033348mm"
   viewBox="0 0 246.50812 208.00006"
   version="1.1"
   id="svg1"
   xml:space="preserve"
   inkscape:version="1.4 (e7c3feb100, 2024-10-09)"
   sodipodi:docname="chair.svg"
   xmlns:inkscape="http://www.inkscape.org/namespaces/inkscape"
   xmlns:sodipodi="http://sodipodi.sourceforge.net/DTD/sodipodi-0.dtd"
   xmlns="http://www.w3.org/2000/svg"
   xmlns:svg="http://www.w3.org/2000/svg"><sodipodi:namedview
     id="namedview1"
     pagecolor="#505050"
     bordercolor="#ffffff"
     borderopacity="1"
     inkscape:showpageshadow="0"
     inkscape:pageopacity="0"
     inkscape:pagecheckerboard="1"
     inkscape:deskcolor="#505050"
     inkscape:document-units="mm"
     inkscape:clip-to-page="false"
     inkscape:zoom="1.0393815"
     inkscape:cx="49.548698"
     inkscape:cy="118.82066"
     inkscape:window-width="1920"
     inkscape:window-height="1012"
     inkscape:window-x="0"
     inkscape:window-y="0"
     inkscape:window-maximized="1"
     inkscape:current-layer="layer1" /><defs
     id="defs1" /><g
     inkscape:label="Layer 1"
     inkscape:groupmode="layer"
     id="layer1"
     transform="translate(-132.23278,-329.87285)"><path
       style="fill:#000000"
       d="m 141.34983,536.38385 c -4.74791,-2.09834 -7.7313,-5.99416 -8.60825,-11.24097 -0.4385,-2.62351 -0.631,-44.66617 -0.42779,-93.42811 0.40997,-98.37309 -0.0975,-91.43312 7.00755,-95.82431 2.91049,-1.79878 4.96432,-2.01761 18.93637,-2.01761 13.69836,0 16.16546,-0.25184 19.59212,-2 3.81518,-1.94636 5.89377,-2 77.5,-2 71.60624,0 73.68482,0.0536 77.5,2 3.40928,1.73929 5.89377,2 19.05904,2 17.31109,0 20.46829,0.89543 24.1752,6.85646 l 2.26576,3.64354 0.28799,88.5 c 0.30226,92.88431 0.20665,95.20722 -4.10927,99.83732 -4.0025,4.29387 -7.89466,5.16356 -23.05084,5.15064 -13.04375,-0.0111 -14.44795,-0.19508 -18.2989,-2.39717 l -4.17103,-2.38511 -4.82897,2.36589 -4.82898,2.36589 -64.41214,0.0313 -64.41214,0.0313 -4.17475,-2.44657 -4.17475,-2.44656 -4.83259,2.44656 c -4.47599,2.26604 -5.87156,2.44055 -18.9131,2.365 -9.35442,-0.0542 -15.08747,-0.5266 -17.08053,-1.40743 z m 34.43421,-9.08884 c 3.06973,-3.49623 3.13482,-3.77568 2.85359,-12.25 l -0.2878,-8.67216 -19.84437,-0.27145 -19.84438,-0.27146 0.34438,10.10959 c 0.32849,9.64346 0.47374,10.22079 3.15014,12.52145 2.67311,2.29784 3.46013,2.41187 16.6464,2.41187 h 13.84065 z m 145.09329,1.88581 c 3.14191,-2.15014 3.93812,-3.31871 3.95725,-5.80797 0.0152,-1.98096 -0.64617,-2 -69.48462,-2 h -69.5 l -6e-5,2.29775 c -4e-5,1.26376 1.19064,3.40126 2.64596,4.75 l 2.64602,2.45225 h 63.63147 c 58.13014,0 63.84523,-0.14629 66.10398,-1.69203 z m 47.66674,-0.71984 c 2.67563,-2.3 2.8217,-2.87975 3.14947,-12.5 l 0.34371,-10.08813 h -20.09371 -20.09371 v 9.42308 c 0,9.1891 0.0764,9.49947 3.07693,12.5 l 3.07692,3.07692 h 13.86731 c 13.21446,0 13.99941,-0.11355 16.67308,-2.41187 z m -46.00869,-15.76244 2.31445,-2.17432 v -44.32568 -44.32569 h -69.5 -69.5 v 44.18555 c 0,43.99003 0.01,44.19579 2.17432,46.5 l 2.17431,2.31445 h 65.01124 65.01123 z m -146.46198,-15.60243 2.27643,-2.27674 0.30535,-37.22326 c 0.25125,-30.62927 0.0231,-38.81758 -1.28773,-46.22326 -0.87619,-4.95 -1.98977,-11.25 -2.47462,-14 -0.48485,-2.75 -1.41767,-7.7 -2.07293,-11 -0.65525,-3.3 -1.41179,-14.55 -1.68118,-25 -0.2694,-10.45 -0.88035,-19.41324 -1.35767,-19.91832 -0.84884,-0.8982 -23.99976,-0.87634 -26.34831,0.0249 -0.65381,0.25089 -1.95243,1.74898 -2.88583,3.32909 -1.55437,2.63135 -1.69584,8.95638 -1.68234,75.21864 0.0114,56.02087 0.29793,72.90539 1.26971,74.826 2.24668,4.44029 5.04538,5.11474 19.93912,4.80506 12.7474,-0.26505 13.88548,-0.44729 16,-2.56209 z m 193.36853,-0.72326 2.39797,-3 0.005,-72.79966 c 0.006,-81.30109 0.31159,-77.68803 -6.74664,-79.6482 -5.27552,-1.46509 -22.54161,-1.35893 -24.0484,0.14786 -0.82664,0.82665 -1.20122,5.88248 -1.20392,16.25 -0.004,14.64455 -0.68673,20.24737 -6.22246,51.05 -0.60222,3.35095 -1.24152,23.47808 -1.44799,45.58714 -0.46647,49.95111 -2.4115,45.83326 21.52143,45.56337 l 13.34706,-0.15051 z m -44.39036,-82.75 c 0.89092,-0.70306 1.82092,-3.43776 2.12547,-6.25 0.49683,-4.58778 1.51343,-11.06055 3.25893,-20.75 l 0.67555,-3.75 h -75.66529 -75.66528 l 0.62194,5.25 c 0.34208,2.8875 1.25757,8.49353 2.03445,12.45784 0.77687,3.96432 1.41249,8.09467 1.41249,9.17857 0,1.08391 0.70715,2.67788 1.57143,3.54216 1.39787,1.39787 9.10817,1.57143 69.80887,1.57143 53.07849,0 68.58933,-0.27769 69.82144,-1.25 z m 4.99354,-40.43709 2.80472,-2.68709 v -14.36066 c 0,-14.25435 -0.0196,-14.37886 -2.65298,-16.81936 l -2.65298,-2.4587 -72.9892,0.25645 -72.98919,0.25645 -2.03588,2.72697 c -1.55636,2.08467 -2.14054,4.72095 -2.48021,11.19264 -0.63569,12.11144 0.44936,19.32022 3.34371,22.21457 l 2.36582,2.36582 h 72.24074 72.24074 z"
       id="path1" /></g></svg>
