<?xml version="1.0" encoding="UTF-8" standalone="no"?>
<!-- Created with Inkscape (http://www.inkscape.org/) -->

<svg
   width="42.734631mm"
   height="65.27784mm"
   viewBox="0 0 161.51671 246.71939"
   version="1.1"
   id="svg1"
   xml:space="preserve"
   inkscape:version="1.4 (e7c3feb100, 2024-10-09)"
   sodipodi:docname="commode.svg"
   xmlns:inkscape="http://www.inkscape.org/namespaces/inkscape"
   xmlns:sodipodi="http://sodipodi.sourceforge.net/DTD/sodipodi-0.dtd"
   xmlns="http://www.w3.org/2000/svg"
   xmlns:svg="http://www.w3.org/2000/svg"><sodipodi:namedview
     id="namedview1"
     pagecolor="#505050"
     bordercolor="#ffffff"
     borderopacity="1"
     inkscape:showpageshadow="0"
     inkscape:pageopacity="0"
     inkscape:pagecheckerboard="1"
     inkscape:deskcolor="#505050"
     inkscape:document-units="mm"
     inkscape:clip-to-page="false"
     inkscape:zoom="2.078763"
     inkscape:cx="306.67277"
     inkscape:cy="54.599779"
     inkscape:window-width="1920"
     inkscape:window-height="1012"
     inkscape:window-x="0"
     inkscape:window-y="0"
     inkscape:window-maximized="1"
     inkscape:current-layer="layer1" /><defs
     id="defs1" /><g
     inkscape:label="Layer 1"
     inkscape:groupmode="layer"
     id="layer1"
     transform="translate(-133.05403,-480.59258)"><path
       style="fill:#000000"
       d="m 199.04837,725.64317 c -9.80996,-2.10897 -20.89626,-7.40909 -27.56297,-13.17726 -11.82983,-10.23542 -20.9635,-28.10495 -24.6844,-48.2937 -1.56944,-8.51547 -1.54113,-41.96499 0.0509,-60.10107 0.62763,-7.15 0.98652,-15.25 0.79753,-18 -0.32543,-4.73514 -0.50255,-5.01539 -3.34363,-5.29042 -8.25222,-0.79887 -12.21725,-5.32271 -11.05202,-12.60964 0.66971,-4.18815 4.76833,-9.59994 7.2705,-9.59994 2.76304,0 2.49643,-3.1491 -0.59198,-6.99221 l -3.1265,-3.89052 V 522.279 c 0,-16.30704 0.40697,-26.62712 1.13607,-28.80864 1.51551,-4.53459 5.4775,-8.74102 10.36393,-11.00336 3.75375,-1.73793 7.76155,-1.85329 65.10078,-1.8739 43.00533,-0.0155 62.10748,0.31449 64.5,1.1141 1.86957,0.62484 4.6769,2.31234 6.2385,3.75 5.52866,5.08988 5.81127,6.50448 6.40507,32.061 0.30248,13.01879 0.24808,25.27973 -0.12089,27.24654 -0.36898,1.96681 -1.98612,5.53439 -3.59366,7.92796 l -2.92279,4.35193 3.56483,1.73396 c 4.53675,2.2067 6.08145,4.30069 6.85499,9.29255 1.16356,7.50867 -1.89914,11.31187 -10.02683,12.45113 l -4,0.56068 0.31987,15.9941 c 0.17593,8.79675 0.73843,19.58228 1.25,23.96785 1.24635,10.68464 1.17963,31.11199 -0.12315,37.69995 -2.59486,13.12192 -3.24401,15.74693 -5.5722,22.53265 -7.01226,20.43785 -21.48541,36.12294 -38.87452,42.12974 -12.4674,4.30667 -25.17151,5.04916 -38.2574,2.23593 z m 30.7574,-7.28721 c 14.84974,-3.48569 28.93255,-15.82159 36.38455,-31.87123 3.27116,-7.04519 7.08046,-19.60747 8.61596,-28.41359 1.96996,-11.29775 -0.76395,-75.09491 -3.28675,-76.69807 -0.66757,-0.42422 -26.99038,-0.7782 -58.49514,-0.78662 -44.96836,-0.012 -57.36231,0.25338 -57.65786,1.23469 -0.20706,0.6875 -0.87529,9.35 -1.48496,19.25 -0.60968,9.9 -1.46168,23.23942 -1.89335,29.64317 -1.19359,17.7068 1.21508,34.77638 7.10581,50.35683 3.32486,8.79396 4.19568,10.34764 10.46775,18.67606 8.37974,11.12712 21.86593,18.44041 37.24399,20.19665 4.87428,0.55667 17.60939,-0.32255 23,-1.58789 z m -32.85878,-9.3004 c -17.02574,-5.89657 -27.79538,-19.04003 -33.58228,-40.98442 -3.07203,-11.6494 -3.95824,-23.80419 -2.63837,-36.18671 1.82907,-17.15958 3.97819,-23.36338 10.44564,-30.15302 8.65148,-9.08248 20.156,-12.40284 42.77743,-12.34617 32.48867,0.0814 46.47033,8.31227 51.72541,30.45025 1.44355,6.08125 1.47379,36.20609 0.0426,42.4713 -4.2697,18.69143 -11.57951,31.83827 -22.09939,39.7462 -9.07503,6.82183 -15.33982,8.86565 -28.31229,9.23661 -9.69078,0.27711 -11.87584,0.0112 -18.35878,-2.23404 z m 35.12771,-8.40128 c 20.29991,-9.92786 30.84172,-36.74983 27.82251,-70.78998 -1.89756,-21.39404 -9.72757,-29.73905 -31.17335,-33.22369 -17.27264,-2.80657 -40.52715,0.23989 -48.88181,6.40376 -3.72,2.74453 -7.64208,7.74852 -9.42647,12.02677 -3.60862,8.65202 -4.42744,30.29131 -1.70278,45 3.40671,18.39058 11.60353,31.83673 23.87901,39.17136 7.20321,4.30394 11.84546,5.32842 22.71396,5.01269 8.97209,-0.26064 10.69579,-0.63078 16.76893,-3.60091 z m -29.18269,-53.63023 c -5.89172,-3.36782 -8.56892,-6.67865 -10.58598,-13.09141 -4.60966,-14.6553 6.15477,-29.35035 21.49974,-29.35035 6.4447,0 11.10352,1.99674 15.91701,6.82194 8.19049,8.2104 9.02666,19.53811 2.1684,29.37531 -6.02024,8.63518 -19.67357,11.57521 -28.99917,6.24451 z m 21.30737,-8.70291 c 3.13971,-3.01301 4.64141,-5.38895 5.15945,-8.16314 1.3029,-6.97718 -2.70384,-14.41754 -9.27094,-17.21574 -6.99933,-2.98238 -14.10112,-1.09712 -18.73043,4.97222 -2.11422,2.77188 -2.55169,4.43017 -2.55169,9.67246 0,6.1969 0.0929,6.41606 4.51756,10.65561 4.29579,4.11609 4.81039,4.32859 10.48244,4.32859 5.65614,0 6.19411,-0.21998 10.39361,-4.25 z m 62.60639,-68.19099 c 0,-1.89254 -0.42551,-3.70396 -0.94558,-4.02538 -0.52008,-0.32143 -33.02198,-0.5675 -72.22646,-0.54685 -77.43922,0.0408 -74.83904,-0.15139 -73.43856,5.42858 l 0.6487,2.58464 h 72.98095 72.98095 z m -11.03895,-14.74757 c 1.12142,-1.20371 2.03895,-3.00371 2.03895,-4 0,-1.72987 -2.90471,-1.81144 -64.5,-1.81144 -45.95024,0 -64.5,0.314 -64.5,1.09184 0,0.60051 1.0125,2.37561 2.25,3.94467 l 2.25,2.85283 60.21105,0.0553 60.21104,0.0553 z m 6.45716,-13.41843 c 1.37712,-0.52845 1.57988,-3.47213 1.56705,-22.75 -0.0162,-24.32789 -0.26512,-25.56719 -5.89771,-29.363 L 274.51,487.57114 h -61.35211 -61.35212 l -4,4 -4,4 v 22.91666 c 0,17.39766 0.30104,23.03814 1.25,23.42106 1.80168,0.72699 135.27757,0.78079 137.16821,0.0553 z M 204.3732,524.62479 c -7.79892,-5.14108 -7.19467,-16.09343 1.0786,-19.55022 5.15184,-2.15258 17.64276,-2.00713 21.13915,0.24615 4.35537,2.80686 6.14843,5.50557 6.14612,9.25042 -0.003,4.39892 -1.74051,7.57622 -5.49872,10.05365 -4.21623,2.77935 -18.64893,2.77935 -22.86515,0 z m 19.60383,-6.70864 c 2.25918,-2.04453 2.29471,-3.17264 0.17375,-5.51627 -2.25828,-2.49537 -13.81655,-2.61697 -16.51627,-0.17376 -2.25917,2.04453 -2.29471,3.17265 -0.17375,5.51628 2.25828,2.49537 13.81655,2.61696 16.51627,0.17375 z"
       id="path2" /></g></svg>
