<?xml version="1.0" encoding="UTF-8" standalone="no"?>
<!-- Created with Inkscape (http://www.inkscape.org/) -->

<svg
   width="64.873367mm"
   height="65.042603mm"
   viewBox="0 0 245.19068 245.8303"
   version="1.1"
   id="svg1"
   xml:space="preserve"
   inkscape:version="1.4 (e7c3feb100, 2024-10-09)"
   sodipodi:docname="dining_set.svg"
   xmlns:inkscape="http://www.inkscape.org/namespaces/inkscape"
   xmlns:sodipodi="http://sodipodi.sourceforge.net/DTD/sodipodi-0.dtd"
   xmlns="http://www.w3.org/2000/svg"
   xmlns:svg="http://www.w3.org/2000/svg"><sodipodi:namedview
     id="namedview1"
     pagecolor="#505050"
     bordercolor="#ffffff"
     borderopacity="1"
     inkscape:showpageshadow="0"
     inkscape:pageopacity="0"
     inkscape:pagecheckerboard="1"
     inkscape:deskcolor="#505050"
     inkscape:document-units="mm"
     inkscape:clip-to-page="false"
     inkscape:zoom="2.078763"
     inkscape:cx="91.641039"
     inkscape:cy="145.51924"
     inkscape:window-width="1920"
     inkscape:window-height="1012"
     inkscape:window-x="0"
     inkscape:window-y="0"
     inkscape:window-maximized="1"
     inkscape:current-layer="layer1" /><defs
     id="defs1" /><g
     inkscape:label="Layer 1"
     inkscape:groupmode="layer"
     id="layer1"
     transform="translate(-100.80577,-389.57114)"><path
       style="fill:#000000"
       d="m 137.69487,634.49128 c -8.42262,-1.85752 -12.69641,-4.6387 -22.70614,-14.77606 -12.11116,-12.26558 -14.65238,-17.50979 -14.11682,-29.13228 0.28701,-6.22843 0.97456,-9.36401 2.86933,-13.08544 2.18407,-4.28965 3.04535,-5.03842 6.97275,-6.06182 3.68326,-0.95978 6.21644,-2.93027 14.23088,-11.0698 5.3625,-5.4462 9.75,-10.28547 9.75,-10.75393 0,-0.46846 -0.44613,-1.68534 -0.9914,-2.70418 -1.70827,-3.19193 -4.07082,-13.12327 -5.5942,-23.51608 -2.04868,-13.97655 -0.64145,-26.65427 4.81513,-43.37924 l 2.08125,-6.37924 -10.49705,-10.37076 c -7.74118,-7.64805 -11.15955,-10.37076 -13.02053,-10.37076 -6.87537,0 -11.38369,-9.75908 -10.55356,-22.84508 0.64952,-10.23891 2.99537,-14.37291 14.87933,-26.2213 12.1755,-12.13906 16.2344,-14.21405 27.88103,-14.25332 6.86001,-0.0231 9.42444,0.41582 13.29131,2.27507 4.7341,2.27622 7.70869,6.04345 7.70869,9.76284 0,0.99964 4.68885,6.49042 10.41966,12.20173 l 10.41966,10.38419 3.36126,-1.59502 c 9.31401,-4.41979 18.82042,-6.05984 34.79942,-6.00363 10.90546,0.0384 17.23375,0.52614 21.34892,1.64556 7.94517,2.16127 12.89701,3.87966 14.43724,5.00999 1.4242,1.04519 2.60756,0.0493 15.0636,-12.6776 5.87636,-6.00413 7.83845,-8.73198 8.46194,-11.76443 0.71076,-3.45688 1.45692,-4.2764 6,-6.58983 4.39938,-2.24026 6.4808,-2.64264 13.6883,-2.64625 11.72421,-0.006 16.84964,2.60314 28.80702,14.66373 12.06394,12.16807 14.52998,17.06423 14.40599,28.60211 -0.13062,12.15425 -4.38114,20.05124 -10.79248,20.05124 -1.34798,0 -5.82771,3.59256 -12.15774,9.75 -9.69246,9.42821 -12.09756,12.61605 -10.33852,13.7032 0.46031,0.28449 1.06949,1.5364 1.35372,2.78203 0.28424,1.24562 1.52847,5.86477 2.76495,10.26477 2.93972,10.46101 3.22941,34.50241 0.53018,44 -2.0722,7.29127 -3.42418,11.26273 -4.86509,14.29123 -0.99863,2.09895 -0.21389,3.17102 9.35093,12.7747 8.6224,8.65744 11.09873,10.58924 14.2169,11.09072 6.54575,1.0527 10.1787,8.58795 10.02079,20.78449 -0.14346,11.07978 -2.52388,15.48992 -14.96623,27.72749 -13.09648,12.88093 -17.26395,15.07034 -28.51987,14.98316 -11.05643,-0.0857 -19.81055,-4.97054 -19.81055,-11.05451 0,-2.0101 -2.44977,-5.07444 -10.35505,-12.95282 l -10.35504,-10.3198 -9.89496,2.97018 c -13.38243,4.01703 -28.02492,5.78175 -35.82861,4.31808 -3.26351,-0.6121 -7.40041,-1.11292 -9.1931,-1.11292 -1.7927,0 -7.2939,-1.35166 -12.2249,-3.0037 -4.931,-1.65204 -9.58387,-2.7664 -10.3397,-2.47636 -0.75583,0.29004 -5.45114,4.68103 -10.43401,9.75776 -6.89711,7.02701 -9.22036,10.08643 -9.73251,12.81642 -1.02082,5.44144 -6.02743,9.11874 -14.14212,10.38723 -2.2,0.34391 -4.675,0.78412 -5.5,0.97825 -0.825,0.19413 -3.975,-0.19287 -7,-0.86001 z m 11.13398,-6.75787 c 2.12631,-0.63706 3.86602,-1.519 3.86602,-1.95986 0,-0.44087 -1.9125,-1.30243 -4.25,-1.91458 -7.81967,-2.04784 -13.13723,-5.40857 -21.30882,-13.46728 -9.80929,-9.67379 -13.25999,-14.71545 -14.7912,-21.61079 -0.63829,-2.87433 -1.66266,-5.39343 -2.27637,-5.598 -2.06759,-0.6892 -3.53266,8.18461 -2.22206,13.45879 1.64646,6.62579 4.40562,10.58558 13.48013,19.34592 8.25774,7.97185 10.63471,9.64759 16.36832,11.53949 4.67742,1.54339 6.55505,1.57819 11.13398,0.20631 z m 158.36602,0.0887 c 7.27962,-1.92616 9.91573,-3.74001 19.07986,-13.1284 12.02702,-12.32135 12.8122,-13.68198 12.86983,-22.30206 0.0257,-3.85 -0.32206,-7.9 -0.77287,-9 -0.80946,-1.97512 -0.83743,-1.97585 -2.24824,-0.0589 -0.78572,1.06762 -1.42858,3.22305 -1.42858,4.78984 0,4.79336 -3.77546,10.62669 -13.14893,20.31594 -9.20029,9.51025 -15.19573,13.43578 -23.70201,15.51899 -4.72679,1.1576 -4.69557,1.80986 0.17271,3.60803 4.08322,1.50819 4.41297,1.51741 9.17823,0.25653 z m -140.26789,-19.6617 c 5.37234,-5.35218 9.76789,-10.29062 9.76789,-10.97432 0,-0.68369 -1.4625,-1.999 -3.25,-2.9229 -9.48877,-4.90444 -23.36006,-18.25456 -30.34155,-29.20156 -2.14965,-3.37065 -4.45735,-6.1378 -5.12823,-6.14922 -0.67089,-0.0114 -5.50839,4.34518 -10.75,9.68133 -10.34193,10.52844 -10.69869,11.37135 -8.28022,19.56366 1.71043,5.79391 18.92548,23.69544 26.14955,27.19231 9.14215,4.42532 10.68374,3.91769 21.83256,-7.1893 z m 135.30806,7.16291 c 4.74638,-2.23102 21.50401,-18.55251 23.91665,-23.29419 0.941,-1.84938 1.96079,-5.78364 2.26621,-8.74279 l 0.55529,-5.38028 -9.32338,-9.50721 c -5.12786,-5.22896 -10.06825,-9.5072 -10.97864,-9.5072 -0.9104,0 -2.17517,1.14107 -2.81061,2.5357 -3.91352,8.58924 -18.96285,24.36351 -29.36595,30.78053 -3.73044,2.30108 -6.78566,4.63377 -6.78939,5.18377 -0.004,0.55 4.50212,5.44493 10.01298,10.87763 9.99238,9.85065 10.0314,9.87631 14.28838,9.39649 2.34774,-0.26463 6.05055,-1.31873 8.22846,-2.34245 z m -67.95695,-14.46519 c 14.54775,-2.54116 17.79495,-3.55207 28.24653,-8.79358 8.34674,-4.18593 9.68428,-5.03635 17.67425,-11.23749 4.84589,-3.76096 19.496,-20.59074 19.496,-22.39664 0,-0.31818 1.04405,-2.25707 2.32011,-4.30864 8.00023,-12.86229 12.2237,-35.90331 9.77374,-53.32036 -2.22683,-15.83075 -7.61766,-29.05335 -16.99697,-41.69009 -24.09715,-32.4661 -66.36655,-44.62555 -104.09688,-29.94508 -11.8149,4.59706 -27.81166,15.68693 -33.7262,23.38095 -1.52559,1.98458 -3.95505,5.01146 -5.3988,6.72639 -3.60108,4.27749 -10.10577,16.76544 -12.82299,24.61806 -4.23822,12.24827 -5.63072,28.28837 -3.64616,42 1.18906,8.21541 7.68291,26.5342 10.81198,30.5 0.43395,0.55 2.41662,3.475 4.40593,6.5 17.09723,25.99859 54.81945,43.05657 83.95946,37.96648 z m -89.58322,-143.5684 c 6.58076,-10.12575 13.63283,-17.15787 24.90121,-24.83077 l 8.36225,-5.69405 -10.08168,-10.08168 -10.08167,-10.08167 -5.43754,0.5612 c -7.78548,0.80353 -10.99044,2.8313 -21.54253,13.62987 -9.80804,10.03715 -13.12004,15.55371 -13.12004,21.85314 0,3.20073 1.053,4.64906 9.75,13.41047 5.3625,5.40221 10.2,9.79387 10.75,9.75924 0.55,-0.0346 3.475,-3.87121 6.5,-8.52575 z m 174.33943,-1.14804 c 10.5389,-10.66535 11.01173,-11.81619 8.47773,-20.63398 -1.69657,-5.90372 -21.58112,-25.92381 -27.31716,-27.50337 -9.20693,-2.53535 -10.4562,-2.02805 -20.93358,8.50053 -5.26153,5.28725 -9.56642,9.9311 -9.56642,10.31966 0,0.38857 3.78373,3.27667 8.40829,6.41801 9.69477,6.5854 19.38757,16.44007 25.56472,25.99168 2.36801,3.66161 4.62645,6.65747 5.01875,6.65747 0.3923,0 5.04875,-4.3875 10.34767,-9.75 z m -207.39201,-18 c 0.57278,-2.0625 1.04394,-4.24336 1.047,-4.84636 0.0149,-2.91989 4.21533,-8.74478 12.45303,-17.26891 9.59888,-9.93262 17.12537,-15.10009 22.05255,-15.14066 4.19673,-0.0345 6.38433,-1.50973 4.71474,-3.17933 -0.80457,-0.80456 -3.9145,-1.2453 -8.50274,-1.205 -9.01632,0.0792 -11.91778,1.7602 -23.54487,13.64107 -8.80002,8.99211 -10.46937,11.44419 -12.22189,17.95257 -1.13636,4.22011 0.3265,13.79662 2.1075,13.79662 0.46929,0 1.32189,-1.6875 1.89468,-3.75 z m 227.40758,-5.46092 c 0.0419,-9.22215 -1.17065,-11.56073 -11.65953,-22.48619 -11.81015,-12.30172 -17.77757,-15.15681 -28.66153,-13.713 -6.9208,0.91807 -6.5837,4.41011 0.42572,4.41011 4.73339,0 10.02311,3.37992 19.26046,12.30664 11.33392,10.95278 15.30976,16.41927 16.0215,22.02843 0.29067,2.29071 0.98864,4.7465 1.55105,5.45731 1.89975,2.40103 3.02841,-0.5487 3.06233,-8.0033 z"
       id="path2" /></g></svg>
