<?xml version="1.0" encoding="UTF-8" standalone="no"?>
<!-- Created with Inkscape (http://www.inkscape.org/) -->

<svg
   width="85.43885mm"
   height="52.400005mm"
   viewBox="0 0 322.91847 198.04725"
   version="1.1"
   id="svg1"
   xml:space="preserve"
   inkscape:version="1.4 (e7c3feb100, 2024-10-09)"
   sodipodi:docname="kitchen_sink.svg"
   xmlns:inkscape="http://www.inkscape.org/namespaces/inkscape"
   xmlns:sodipodi="http://sodipodi.sourceforge.net/DTD/sodipodi-0.dtd"
   xmlns="http://www.w3.org/2000/svg"
   xmlns:svg="http://www.w3.org/2000/svg"><sodipodi:namedview
     id="namedview1"
     pagecolor="#505050"
     bordercolor="#ffffff"
     borderopacity="1"
     inkscape:showpageshadow="0"
     inkscape:pageopacity="0"
     inkscape:pagecheckerboard="1"
     inkscape:deskcolor="#505050"
     inkscape:document-units="mm"
     inkscape:clip-to-page="false"
     inkscape:zoom="1.0393815"
     inkscape:cx="156.82404"
     inkscape:cy="113.048"
     inkscape:window-width="1920"
     inkscape:window-height="1006"
     inkscape:window-x="0"
     inkscape:window-y="0"
     inkscape:window-maximized="1"
     inkscape:current-layer="layer1" /><defs
     id="defs1"><inkscape:path-effect
       effect="offset"
       id="path-effect8"
       is_visible="true"
       lpeversion="1.3"
       linejoin_type="miter"
       unit="mm"
       offset="-4"
       miter_limit="4"
       attempt_force_join="false"
       update_on_knot_move="true" /><inkscape:path-effect
       effect="offset"
       id="path-effect7"
       is_visible="true"
       lpeversion="1.3"
       linejoin_type="extrp_arc"
       unit="mm"
       offset="-5.6"
       miter_limit="4"
       attempt_force_join="false"
       update_on_knot_move="true" /></defs><g
     inkscape:label="Layer 1"
     inkscape:groupmode="layer"
     id="layer1"
     transform="translate(-121.20132,-561.06353)"><path
       id="rect7"
       style="fill:none;fill-opacity:0.497897;stroke:#000000;stroke-width:6.7349;stroke-linecap:round;stroke-linejoin:round"
       d="m 182.54517,564.43098 h 200.23076 c 32.11892,0 57.9764,25.85748 57.9764,57.97641 v 75.35954 c 0,32.11893 -25.85748,57.9764 -57.9764,57.9764 H 182.54517 c -32.11893,0 -57.9764,-25.85747 -57.9764,-57.9764 v -75.35954 c 0,-32.11893 25.85747,-57.97641 57.9764,-57.97641 z" /><path
       id="path7"
       style="fill:none;fill-opacity:0.497897;stroke:#000000;stroke-width:6.7349;stroke-linecap:round;stroke-linejoin:round"
       d="m 182.54492,579.56055 h 200.23047 c 23.99957,0 42.84766,18.84807 42.84766,42.84765 v 75.35938 c 0,23.99958 -18.84809,42.84765 -42.84766,42.84765 H 182.54492 c -23.99958,0 -42.84765,-18.84807 -42.84765,-42.84765 V 622.4082 c 0,-23.99958 18.84807,-42.84765 42.84765,-42.84765 z"
       inkscape:original-d="m 182.54517,564.43098 h 200.23076 c 32.11892,0 57.9764,25.85748 57.9764,57.97641 v 75.35954 c 0,32.11893 -25.85748,57.9764 -57.9764,57.9764 H 182.54517 c -32.11893,0 -57.9764,-25.85747 -57.9764,-57.9764 v -75.35954 c 0,-32.11893 25.85747,-57.97641 57.9764,-57.97641 z"
       inkscape:path-effect="#path-effect8" /><path
       style="fill:#000000"
       d="m 269.14526,659.43764 c -3.88214,-3.4451 -4.32242,-4.31451 -4.741,-9.36203 -0.3276,-3.95048 0.0311,-6.60222 1.23688,-9.14316 1.33119,-2.80527 1.55849,-5.05082 1.05153,-10.38797 -1.04623,-11.01437 -1.43861,-12.24925 -4.10472,-12.9184 -1.96529,-0.49326 -2.42034,-1.24512 -2.42034,-3.99906 0,-2.72493 0.39313,-3.39159 2,-3.39159 1.1,0 2.0362,-0.5625 2.08043,-1.25 0.0442,-0.6875 0.15674,-5.82569 0.25,-11.41821 0.15568,-9.335 0.37443,-10.39032 2.66957,-12.87887 5.04516,-5.47032 13.00703,-6.96552 18.67804,-3.50764 3.40811,2.07809 9.91628,8.3529 17.57196,16.94193 3.65054,4.0956 4.75,6.10053 4.75,8.66192 0,1.83306 0.45,3.61095 1,3.95087 0.55,0.33991 1,2.12116 1,3.95832 0,3.67291 1.10803,3.24385 -13.22318,5.12035 -4.35932,0.5708 -4.76052,0.86122 -5.20796,3.76989 -1.3276,8.63037 -1.63205,14.87577 -0.77775,15.95431 0.52154,0.65842 1.48212,2.85533 2.13464,4.88203 1.78543,5.54553 -0.005,10.87085 -5.12857,15.2567 -3.60651,3.08704 -4.84484,3.55839 -9.34857,3.55839 -4.59265,0 -5.68497,-0.43801 -9.47096,-3.79778 z m 15.43346,-6.27894 c 3.04632,-3.62035 3.20969,-4.63641 0.83889,-5.21725 -1.5063,-0.36904 -10.25386,-0.27259 -13.96861,0.15402 -1.56071,0.17924 -0.59746,2.95773 2.04194,5.88995 3.04447,3.38225 7.8475,3.02413 11.08778,-0.82672 z m -1.18819,-16.92328 c 0.42213,-2.475 0.88216,-8.08855 1.02229,-12.47456 l 0.25479,-7.97456 -4.86301,-3.27544 c -6.74783,-4.54493 -7.63699,-4.33956 -7.63699,1.76398 0,5.42616 1.7865,23.61853 2.53076,25.77143 0.29305,0.84769 1.7731,1.20101 4.18892,1 3.58126,-0.29799 3.76748,-0.49693 4.50324,-4.81085 z m 15.94834,-24.65498 c 3.38885,-3.06687 2.17284,-5.46384 -7.9025,-15.57712 -9.91018,-9.9475 -11.98719,-11.05932 -16.32415,-8.73825 -1.05815,0.56631 -2.62915,2.39343 -3.49111,4.06028 -1.44575,2.79576 -1.42717,3.26662 0.23965,6.07589 1.80784,3.04692 21.31373,15.78085 24.22811,15.8167 0.78169,0.01 2.24419,-0.72726 3.25,-1.6375 z"
       id="path8"
       inkscape:label="tap" /></g></svg>
