<?xml version="1.0" encoding="UTF-8" standalone="no"?>
<!-- Created with Inkscape (http://www.inkscape.org/) -->

<svg
   width="41.838398mm"
   height="41.838398mm"
   viewBox="0 0 158.12937 158.12937"
   version="1.1"
   id="svg1"
   xml:space="preserve"
   inkscape:version="1.4 (e7c3feb100, 2024-10-09)"
   sodipodi:docname="shower.svg"
   xmlns:inkscape="http://www.inkscape.org/namespaces/inkscape"
   xmlns:sodipodi="http://sodipodi.sourceforge.net/DTD/sodipodi-0.dtd"
   xmlns="http://www.w3.org/2000/svg"
   xmlns:svg="http://www.w3.org/2000/svg"><sodipodi:namedview
     id="namedview1"
     pagecolor="#505050"
     bordercolor="#ffffff"
     borderopacity="1"
     inkscape:showpageshadow="0"
     inkscape:pageopacity="0"
     inkscape:pagecheckerboard="1"
     inkscape:deskcolor="#505050"
     inkscape:document-units="mm"
     inkscape:clip-to-page="false"
     inkscape:zoom="2.078763"
     inkscape:cx="28.622792"
     inkscape:cy="32.471234"
     inkscape:window-width="1920"
     inkscape:window-height="1012"
     inkscape:window-x="0"
     inkscape:window-y="0"
     inkscape:window-maximized="1"
     inkscape:current-layer="layer1" /><defs
     id="defs1" /><g
     inkscape:label="Layer 1"
     inkscape:groupmode="layer"
     id="layer1"
     transform="translate(-203.59587,-581.02247)"><rect
       style="fill:none;fill-opacity:0.497897;stroke:#000000;stroke-width:7.55906;stroke-linecap:round;stroke-linejoin:round;stroke-dasharray:none;stroke-opacity:1"
       id="rect7"
       width="150.57031"
       height="150.57031"
       x="207.3754"
       y="584.802" /><path
       fill="#000000"
       d="m 266.45827,645.10134 q -1.70848,0 -2.86221,-1.15775 -1.15373,-1.15774 -1.15775,-2.86221 -0.004,-1.70446 1.15775,-2.8622 1.16177,-1.15775 2.86221,-1.15775 1.70044,0 2.86623,1.15775 1.16578,1.15774 1.15372,2.8622 -0.0121,1.70447 -1.15774,2.86623 -1.14569,1.16177 -2.86221,1.15373 m 16.07982,0 q -1.70848,0 -2.86221,-1.15775 -1.15372,-1.15774 -1.15774,-2.86221 -0.004,-1.70446 1.15774,-2.8622 1.16177,-1.15775 2.86221,-1.15775 1.70044,0 2.86623,1.15775 1.16579,1.15774 1.15373,2.8622 -0.0121,1.70447 -1.15775,2.86623 -1.14569,1.16177 -2.86221,1.15373 m 16.07983,0 q -1.70848,0 -2.86221,-1.15775 -1.15373,-1.15774 -1.15775,-2.86221 -0.004,-1.70446 1.15775,-2.8622 1.16177,-1.15775 2.86221,-1.15775 1.70044,0 2.86623,1.15775 1.16578,1.15774 1.15372,2.8622 -0.0121,1.70447 -1.15774,2.86623 -1.14569,1.16177 -2.86221,1.15373 M 254.3984,629.02152 v -8.03992 q 0,-10.65288 6.83393,-18.49179 6.83392,-7.83892 17.28581,-9.2459 V 584.802 h 8.03991 v 8.44191 q 10.45188,1.40698 17.28581,9.2459 6.83392,7.83891 6.83392,18.49179 v 8.03992 z m 8.03991,-8.03992 h 40.19956 q 0,-8.3414 -5.88119,-14.21858 -5.8812,-5.87718 -14.21859,-5.8812 -8.33739,-0.004 -14.21858,5.8812 -5.8812,5.88522 -5.8812,14.21858 m 4.01996,36.17961 q -1.70848,0 -2.86221,-1.15775 -1.15373,-1.15775 -1.15775,-2.86221 -0.004,-1.70446 1.15775,-2.86221 1.16177,-1.15774 2.86221,-1.15774 1.70044,0 2.86623,1.15774 1.16578,1.15775 1.15372,2.86221 -0.0121,1.70446 -1.15774,2.86623 -1.14569,1.16177 -2.86221,1.15373 m 16.07982,0 q -1.70848,0 -2.86221,-1.15775 -1.15372,-1.15775 -1.15774,-2.86221 -0.004,-1.70446 1.15774,-2.86221 1.16177,-1.15774 2.86221,-1.15774 1.70044,0 2.86623,1.15774 1.16579,1.15775 1.15373,2.86221 -0.0121,1.70446 -1.15775,2.86623 -1.14569,1.16177 -2.86221,1.15373 m 16.07983,0 q -1.70848,0 -2.86221,-1.15775 -1.15373,-1.15775 -1.15775,-2.86221 -0.004,-1.70446 1.15775,-2.86221 1.16177,-1.15774 2.86221,-1.15774 1.70044,0 2.86623,1.15774 1.16578,1.15775 1.15372,2.86221 -0.0121,1.70446 -1.15774,2.86623 -1.14569,1.16177 -2.86221,1.15373 M 282.53809,620.9816"
       id="path1"
       style="stroke-width:4.01996" /></g></svg>
