<?xml version="1.0" encoding="UTF-8" standalone="no"?>
<!-- Created with Inkscape (http://www.inkscape.org/) -->

<svg
   width="65.35231mm"
   height="36.324554mm"
   viewBox="0 0 247.00086 137.28965"
   version="1.1"
   id="svg1"
   xml:space="preserve"
   inkscape:version="1.4 (e7c3feb100, 2024-10-09)"
   sodipodi:docname="sofa.svg"
   xmlns:inkscape="http://www.inkscape.org/namespaces/inkscape"
   xmlns:sodipodi="http://sodipodi.sourceforge.net/DTD/sodipodi-0.dtd"
   xmlns="http://www.w3.org/2000/svg"
   xmlns:svg="http://www.w3.org/2000/svg"><sodipodi:namedview
     id="namedview1"
     pagecolor="#505050"
     bordercolor="#ffffff"
     borderopacity="1"
     inkscape:showpageshadow="0"
     inkscape:pageopacity="0"
     inkscape:pagecheckerboard="1"
     inkscape:deskcolor="#505050"
     inkscape:document-units="mm"
     inkscape:clip-to-page="false"
     inkscape:zoom="2.078763"
     inkscape:cx="67.588273"
     inkscape:cy="128.20124"
     inkscape:window-width="1920"
     inkscape:window-height="1012"
     inkscape:window-x="0"
     inkscape:window-y="0"
     inkscape:window-maximized="1"
     inkscape:current-layer="layer1" /><defs
     id="defs1" /><g
     inkscape:label="Layer 1"
     inkscape:groupmode="layer"
     id="layer1"
     transform="translate(-124.69487,-400.39169)"><path
       style="fill:#000000"
       d="m 130.56828,536.24741 c -6.05661,-3.84976 -5.87281,-1.87092 -5.87281,-63.22608 0,-49.87879 0.18075,-56.44081 1.63884,-59.49845 2.12995,-4.46656 4.91354,-5.63119 13.4592,-5.63119 6.81601,0 7.0961,-0.10061 10.43938,-3.75 l 3.43545,-3.75 h 94.62317 94.62317 l 2.71322,3.25 c 2.60474,3.12005 3.00403,3.25 9.98611,3.25 8.12885,0 11.77981,1.52647 14.44592,6.03984 1.46222,2.47534 1.63554,8.77155 1.63554,59.41412 0,62.32533 0.13864,60.87163 -6.11351,64.10474 -2.37037,1.22577 -4.84234,1.46342 -10.73307,1.03185 -4.20938,-0.30839 -8.89092,-0.51979 -10.40342,-0.46978 -3.50422,0.11587 -188.81473,0.12029 -192.5,0.005 -1.5125,-0.0475 -6.35,0.13565 -10.75,0.40697 -6.37106,0.39285 -8.53494,0.15327 -10.62719,-1.17662 z m 15.92719,-6.55572 c 0.69949,-0.69948 1.2,-4.05379 1.2,-8.04206 v -6.84207 l -7.75,0.29207 -7.75,0.29206 -0.30326,5.86241 c -0.40229,7.77702 1.19199,9.63759 8.25825,9.63759 2.82976,0 5.68501,-0.54 6.34501,-1.2 z m 193.62537,-0.71753 c 0.95444,-1.05465 1.58669,-2.96715 1.40499,-4.25 l -0.33036,-2.33247 -92.72965,-0.25517 -92.72964,-0.25518 -0.63888,2.54547 c -0.43526,1.73424 -0.0737,3.17002 1.13464,4.50518 1.73638,1.91868 3.66165,1.9597 91.96353,1.9597 87.62714,0 90.23934,-0.0545 91.92537,-1.91753 z m 23.04791,0.3014 c 1.2141,-1.2141 1.54282,-3.142 1.32143,-7.75 l -0.29471,-6.13387 -7.75,-0.29206 -7.75,-0.29207 v 6.84207 c 0,3.98827 0.50052,7.34258 1.2,8.04206 1.82147,1.82147 11.3339,1.52325 13.27328,-0.41613 z M 243.45882,515.05912 c 0.98629,-0.62609 1.20559,-8.35306 1,-35.23469 l -0.26335,-34.43274 -43.38461,-0.26072 c -31.19847,-0.18749 -43.76814,0.0576 -44.75,0.87244 -1.1021,0.91466 -1.36539,7.33976 -1.36539,33.3196 0,33.09033 0.15733,34.50137 4,35.8747 2.43564,0.87047 83.38223,0.73812 84.76335,-0.13859 z m 96.8179,-1.60856 c 2.05529,-2.81204 2.10508,-65.74437 0.0534,-67.44715 -0.98187,-0.81487 -13.55153,-1.05993 -44.75,-0.87244 l -43.38462,0.26072 -0.26334,34.43274 c -0.20554,26.87434 0.014,34.61267 1,35.25245 0.69484,0.45084 20.31241,0.70611 43.59459,0.56726 40.59361,-0.24208 42.38949,-0.33213 43.75,-2.19358 z m -192.82134,-52.18964 0.25991,-46.13078 -2.25991,-0.60557 c -4.28323,-1.14774 -10.08247,-0.65093 -11.93117,1.02211 -1.71828,1.55503 -1.82874,4.2834 -1.82874,45.17126 0,50.56611 -0.62594,47.45309 9.44363,46.96644 l 6.05637,-0.29269 z m 215.41135,44.97579 c 1.71854,-1.55526 1.82874,-4.28984 1.82874,-45.37756 0,-33.77434 -0.28441,-43.95168 -1.25,-44.72954 -1.98677,-1.6005 -7.6045,-2.48779 -11.32817,-1.78923 l -3.42183,0.64194 v 45.78802 c 0,25.18341 0.3,46.08802 0.66667,46.45469 1.42786,1.42785 11.66239,0.67885 13.50459,-0.98832 z M 243.64529,437.45216 c 0.65708,-0.79174 1.04968,-2.70424 0.87244,-4.25 l -0.32226,-2.81047 h -44.5 -44.5 l -0.33578,2.95069 c -0.63252,5.55817 -0.70503,5.54931 45.40447,5.54931 35.49146,0 42.37602,-0.22845 43.38113,-1.43953 z m 96.44484,0.14022 c 1.18217,-0.86442 1.66453,-2.28693 1.44113,-4.25 l -0.33579,-2.95069 h -44.5 -44.5 l -0.31399,3.25855 c -0.2533,2.62868 0.13329,3.43795 2,4.18662 1.28233,0.51429 20.61959,0.95632 43.37286,0.99145 32.17999,0.0497 41.44313,-0.21759 42.83579,-1.23593 z m -95.89466,-22.70069 v -7.5 l -43.5,-0.26275 c -49.22375,-0.29734 -46,-0.84902 -46,7.8721 0,8.65702 -4.23058,7.94346 45.36095,7.65098 l 44.13905,-0.26033 z m 96.89301,6.41822 c 1.30981,-3.41331 0.63553,-12.14963 -1.04548,-13.54577 -2.24126,-1.86146 -84.75068,-2.61267 -86.94494,-0.7916 -1.45445,1.20708 -2.06786,13.92055 -0.73592,15.25249 0.36667,0.36666 20.34352,0.66666 44.39301,0.66666 38.95022,0 43.79265,-0.17277 44.33333,-1.58178 z"
       id="path2" /></g></svg>
