<?xml version="1.0" encoding="UTF-8" standalone="no"?>
<!-- Created with Inkscape (http://www.inkscape.org/) -->

<svg
   width="65.393272mm"
   height="43.573265mm"
   viewBox="0 0 247.15567 164.68635"
   version="1.1"
   id="svg1"
   xml:space="preserve"
   inkscape:version="1.4 (e7c3feb100, 2024-10-09)"
   sodipodi:docname="washbasin.svg"
   xmlns:inkscape="http://www.inkscape.org/namespaces/inkscape"
   xmlns:sodipodi="http://sodipodi.sourceforge.net/DTD/sodipodi-0.dtd"
   xmlns="http://www.w3.org/2000/svg"
   xmlns:svg="http://www.w3.org/2000/svg"><sodipodi:namedview
     id="namedview1"
     pagecolor="#505050"
     bordercolor="#ffffff"
     borderopacity="1"
     inkscape:showpageshadow="0"
     inkscape:pageopacity="0"
     inkscape:pagecheckerboard="1"
     inkscape:deskcolor="#505050"
     inkscape:document-units="mm"
     inkscape:clip-to-page="false"
     inkscape:zoom="2.078763"
     inkscape:cx="80.095711"
     inkscape:cy="-21.888017"
     inkscape:window-width="1920"
     inkscape:window-height="1012"
     inkscape:window-x="0"
     inkscape:window-y="0"
     inkscape:window-maximized="1"
     inkscape:current-layer="layer1" /><defs
     id="defs1" /><g
     inkscape:label="Layer 1"
     inkscape:groupmode="layer"
     id="layer1"
     transform="translate(-152.05403,-577.58617)"><path
       style="fill:#000000"
       d="m 261.05403,742.05461 c -0.825,-0.2371 -5.55,-0.8867 -10.5,-1.44354 -14.92336,-1.67878 -19.537,-2.6791 -33,-7.15499 -25.98194,-8.63793 -50.87912,-25.70968 -59.8708,-41.05281 -5.36563,-9.15576 -5.6292,-12.00766 -5.6292,-60.90913 0,-37.96847 0.23352,-45.45244 1.49429,-47.89051 3.337,-6.45305 -5.63443,-6.01104 122.00571,-6.01104 127.64014,0 118.66871,-0.44201 122.00571,6.01104 2.19816,4.25077 2.20075,92.08908 0.003,99.33321 -3.11616,10.27104 -10.01068,19.08043 -22.50864,28.76012 -20.39212,15.79372 -44.01265,25.14693 -73,28.90639 -8.21768,1.06578 -38.59946,2.14119 -41,1.45126 z m 42,-8.3645 c 18.39892,-2.53168 29.90033,-6.1555 46.5,-14.65107 10.72065,-5.48674 13.60756,-7.31626 23.15634,-14.67491 7.64169,-5.88898 13.45068,-12.42177 16.49935,-18.55519 l 2.34431,-4.71635 0.27878,-46.88946 c 0.25441,-42.79063 0.13159,-47.0521 -1.40499,-48.75 -1.62274,-1.79311 -5.77325,-1.86054 -114.52878,-1.86054 -112.20774,0 -112.85652,0.0115 -114.88272,2.03771 -2.00012,2.00012 -2.0324,2.89051 -1.75,48.27323 l 0.28771,46.23553 3.19634,6.47677 c 7.20253,14.59454 32.56093,32.11394 59.30366,40.97124 10.47736,3.47015 15.63139,4.59482 27.35996,5.97032 4.32298,0.50699 8.14411,1.20594 8.4914,1.55323 0.91196,0.91195 36.28603,-0.20102 45.14864,-1.42051 z m -51,-8.23977 c -3.575,-0.5306 -8.075,-1.35351 -10,-1.8287 -7.5891,-1.87336 -23.58222,-6.43882 -25,-7.1366 -0.825,-0.40604 -5.80667,-2.76865 -11.07037,-5.25026 -17.06293,-8.04443 -29.8846,-19.36655 -35.80255,-31.61529 -7.03504,-14.56086 2.51788,-33.80756 21.04634,-42.40301 9.98529,-4.63223 13.86337,-5.8961 27.82658,-9.06876 4.11435,-0.93484 23.87786,-3.37696 33.25,-4.10861 5.36087,-0.4185 8.78116,-1.12142 8.83043,-1.8148 0.0442,-0.62244 0.15674,-5.70741 0.25,-11.29992 0.15568,-9.335 0.37443,-10.39032 2.66957,-12.87888 5.11239,-5.54321 13.00923,-6.96396 18.86483,-3.39405 3.39933,2.07243 15.36565,13.90944 19.65351,19.44113 1.27899,1.65 2.47308,4.575 2.65355,6.5 l 0.32811,3.5 8.5,1.24682 c 32.65869,4.79052 46.73044,9.67046 58.25321,20.20162 7.66462,7.00503 10.74679,13.60797 10.74679,23.02288 0,11.34526 -5.5823,20.69937 -18.45988,30.93271 -5.84703,4.64641 -22.99681,14.1283 -31.04012,17.16167 -7.10095,2.67797 -21.15057,6.38669 -30.5,8.05117 -7.75908,1.38136 -43.21438,1.89641 -51,0.74088 z m 46.17371,-6.92294 c 2.92946,-0.58585 7.80129,-1.53768 10.82629,-2.11516 17.75173,-3.38889 40.57561,-13.6009 51,-22.81877 1.375,-1.21586 3.40577,-2.95095 4.51283,-3.85577 2.27422,-1.85875 8.34784,-9.50125 10.23717,-12.88154 1.74207,-3.11681 1.56076,-12.27557 -0.33272,-16.8073 -1.81558,-4.34529 -10.62651,-13.17449 -15.56813,-15.60042 -12.88334,-6.32466 -20.9942,-8.57791 -42.9107,-11.92091 -7.04957,-1.07529 -9.83657,-0.99521 -22.16163,0.63677 -4.35737,0.57697 -4.76072,0.86949 -5.20795,3.77685 -1.32761,8.63037 -1.63206,14.87578 -0.77775,15.95432 0.52153,0.65841 1.48211,2.85533 2.13463,4.88203 1.78544,5.54552 -0.005,10.87084 -5.12857,15.2567 -3.60651,3.08704 -4.84484,3.55839 -9.34857,3.55839 -4.59265,0 -5.68497,-0.43801 -9.47096,-3.79778 -3.88214,-3.4451 -4.32242,-4.31452 -4.741,-9.36203 -0.3276,-3.95048 0.0311,-6.60222 1.23688,-9.14316 1.33119,-2.80527 1.55849,-5.05082 1.05153,-10.38798 -0.96312,-10.13939 -1.49472,-12.16464 -3.34736,-12.75265 -1.95271,-0.61977 -21.67566,0.9026 -31.1777,2.40653 -17.22719,2.72662 -24.68313,4.93113 -36.84914,10.89523 -4.93891,2.42119 -13.75183,11.25107 -15.56814,15.59811 -2.54745,6.09691 -2.04611,13.20311 1.3491,19.12249 2.8807,5.02237 10.81617,13.00605 18.56818,18.68099 11.20329,8.20147 36.70031,17.7181 55,20.52844 8.54269,1.31193 40.3472,1.41184 46.67371,0.14662 z m -16.7626,-52.01153 c 3.04632,-3.62035 3.20969,-4.63641 0.83889,-5.21725 -1.5063,-0.36905 -10.25386,-0.27259 -13.96861,0.15402 -1.56071,0.17924 -0.59746,2.95773 2.04194,5.88995 3.04447,3.38225 7.8475,3.02413 11.08778,-0.82672 z m -1.18818,-16.92328 c 0.42212,-2.475 0.88215,-8.08855 1.02228,-12.47456 l 0.25479,-7.97457 -4.86301,-3.27543 c -6.74783,-4.54494 -7.63699,-4.33956 -7.63699,1.76397 0,5.42616 1.7865,23.61854 2.53076,25.77143 0.29305,0.8477 1.7731,1.20102 4.18892,1 3.58127,-0.29799 3.76748,-0.49692 4.50325,-4.81084 z m 15.94833,-24.65499 c 3.38885,-3.06687 2.17284,-5.46384 -7.9025,-15.57712 -9.91017,-9.9475 -11.98719,-11.05932 -16.32415,-8.73825 -1.05815,0.56631 -2.62915,2.39343 -3.49111,4.06028 -1.44574,2.79577 -1.42717,3.26663 0.23965,6.07589 1.80784,3.04693 21.31373,15.78085 24.22811,15.81671 0.78169,0.01 2.24419,-0.72726 3.25,-1.63751 z M 172.7499,598.95513 c -0.38273,-0.38273 -0.69587,-1.97087 -0.69587,-3.52921 v -2.83333 h 13.06336 13.06336 l -0.31336,3.25 -0.31336,3.25 -12.05413,0.27921 c -6.62976,0.15356 -12.36726,-0.0339 -12.75,-0.41667 z"
       id="path2" /></g></svg>
