<?xml version="1.0" encoding="UTF-8" standalone="no"?>
<!-- Created with Inkscape (http://www.inkscape.org/) -->

<svg
   width="55.033333mm"
   height="65.32692mm"
   viewBox="0 0 208 246.9049"
   version="1.1"
   id="svg1"
   xml:space="preserve"
   inkscape:version="1.4 (e7c3feb100, 2024-10-09)"
   sodipodi:docname="bed.svg"
   xmlns:inkscape="http://www.inkscape.org/namespaces/inkscape"
   xmlns:sodipodi="http://sodipodi.sourceforge.net/DTD/sodipodi-0.dtd"
   xmlns="http://www.w3.org/2000/svg"
   xmlns:svg="http://www.w3.org/2000/svg"><sodipodi:namedview
     id="namedview1"
     pagecolor="#505050"
     bordercolor="#ffffff"
     borderopacity="1"
     inkscape:showpageshadow="0"
     inkscape:pageopacity="0"
     inkscape:pagecheckerboard="1"
     inkscape:deskcolor="#505050"
     inkscape:document-units="mm"
     inkscape:clip-to-page="false"
     inkscape:zoom="1.0393815"
     inkscape:cx="23.571711"
     inkscape:cy="130.36599"
     inkscape:window-width="1920"
     inkscape:window-height="1012"
     inkscape:window-x="0"
     inkscape:window-y="0"
     inkscape:window-maximized="1"
     inkscape:current-layer="layer1" /><defs
     id="defs1" /><g
     inkscape:label="Layer 1"
     inkscape:groupmode="layer"
     id="layer1"
     transform="translate(-158.5,-318)"><path
       style="fill:#000000"
       d="m 167.8866,564.26698 c -0.61237,-0.42184 -2.97487,-4.29274 -5.25,-8.602 -4.04098,-7.65392 -4.1366,-8.0634 -4.1366,-17.71482 0,-8.85634 0.20718,-9.99067 2,-10.95016 1.96334,-1.05075 2,-2.09382 2,-56.91274 0,-48.88964 0.19038,-56.00037 1.52908,-57.11139 1.32008,-1.09558 1.48821,-5.17842 1.23009,-29.87245 -0.28527,-27.29241 -0.40681,-28.87842 -2.65175,-34.60342 -1.29402,-3.3 -2.74756,-6.4275 -3.23009,-6.95 C 158.8948,341.0275 158.5,335.515 158.5,329.3 V 318 h 103.39301 c 93.35841,0 103.45192,0.15352 104,1.58179 0.33385,0.86998 0.60699,5.13594 0.60699,9.4799 0,6.87443 -0.51844,9.19943 -4,17.93831 l -4,10.0402 v 26.75739 c 0,22.41003 0.24882,27.11264 1.53144,28.94383 1.33076,1.89993 1.52824,9.36557 1.50705,56.97251 -0.0134,30.13234 0.30993,55.26889 0.71856,55.85901 0.40862,0.59012 1.53045,1.3635 2.49295,1.71862 1.49022,0.54982 1.75,1.98933 1.75,9.69704 0,8.71421 -0.16525,9.38039 -4.43629,17.88455 l -4.43629,8.83318 -4.81371,0.54793 c -7.54908,0.85929 -183.68059,0.8714 -184.92711,0.0127 z m 186.73789,-9.98244 c 1.02305,-1.83133 1.39212,-3.46526 0.85738,-3.79575 -0.75216,-0.46486 -51.48203,-0.59864 -185.73187,-0.4898 -1.71957,10e-4 -1.56914,0.96532 0.74227,4.75633 l 1.9848,3.25532 90.17557,-0.25532 L 352.8282,557.5 Z m 4.44501,-13.70545 c 0.33419,-1.33149 0.4491,-3.24399 0.25536,-4.25 C 358.98648,534.57204 355.17243,534.5 262.4863,534.5 H 166 l -0.32457,2.83447 C 164.97811,543.42404 157.73498,543 262.44956,543 H 358.4619 Z M 355,484 V 441.5 H 262.5 170 l -0.26074,42.75518 -0.26074,42.75518 92.76074,-0.25518 L 355,526.5 Z m 0,-58 v -7.5 H 262.5 170 l -0.30147,6.39467 c -0.16581,3.51707 -0.0665,7.00692 0.22061,7.75521 0.43606,1.13635 15.72803,1.31849 92.80148,1.10533 L 355,433.5 Z m -3.73258,-40.22658 0.26742,-24.72657 -2.51519,-0.63127 c -5.32832,-1.33733 -5.51965,-0.77975 -5.51965,16.08515 0,16.94265 -0.91344,21.086 -5.27923,23.94657 -2.16013,1.41538 -6.6441,1.55513 -38.33353,1.19478 -42.89828,-0.4878 -31.8733,-0.48847 -74.88724,0.005 -27.45679,0.31471 -36.5542,0.11735 -38.33531,-0.83164 -4.4213,-2.35571 -5.16469,-5.54874 -5.16469,-22.18355 0,-8.50733 -0.27314,-16.17968 -0.60699,-17.04966 -0.71712,-1.8688 -5.45455,-2.12025 -7.19301,-0.38179 -1.30314,1.30314 -1.8034,47.86327 -0.52796,49.13871 0.36962,0.36962 40.53212,0.55712 89.25,0.41666 L 351,410.5 Z M 335.25,393.21111 c 1.88639,-2.40457 1.74228,-32.15517 -0.16843,-34.76998 -1.34567,-1.84156 -3.07994,-1.95593 -33.81006,-2.22975 -30.72421,-0.27375 -32.47991,-0.19107 -34.10641,1.60618 -1.50199,1.65969 -1.68066,3.9875 -1.43993,18.76021 0.26571,16.30599 0.34868,16.90219 2.50126,17.97428 1.54604,0.77001 11.93629,0.97801 34,0.68065 27.54511,-0.37124 31.93992,-0.64028 33.02357,-2.02159 z m -76.97738,-16.97726 0.27262,-18.26615 -2.58772,-0.98385 C 254.46798,356.41753 240.54824,356 223.15741,356 c -25.72611,0 -30.54242,0.23116 -32.4349,1.5567 -2.14269,1.5008 -2.22251,2.14432 -2.22251,17.91822 0,8.99883 0.27539,17.07916 0.61198,17.95629 0.54637,1.42383 4.27143,1.56659 34.75,1.33179 L 258,394.5 Z M 186,351.52213 l 5,-2.45959 32.79966,-0.0313 c 27.84821,-0.0265 33.25655,0.205 35.8262,1.53381 2.74619,1.42011 3.24779,1.42011 5.41515,0 2.04682,-1.34112 7.15162,-1.56455 35.67381,-1.56134 30.99513,0.003 33.50062,0.13511 36.41656,1.91316 2.97579,1.81455 6.42986,2.41081 12.65416,2.18442 2.31993,-0.0844 3.11389,-0.86735 4.75,-4.68423 1.08045,-2.52059 1.96446,-5.22059 1.96446,-6 C 356.5,341.2043 342.87618,341 262,341 c -56.63813,0 -94.5,0.36744 -94.5,0.91709 0,2.23306 4.02093,9.99898 5.67523,10.96097 2.98638,1.73661 7.51039,1.2583 12.82477,-1.35593 z m 171.91821,-18.12912 c 1.66759,-0.63991 2.12634,-4.98707 0.75434,-7.14806 -0.63198,-0.9954 -20.64535,-1.20229 -96.73469,-1 L 166,325.5 l -0.32418,3.39514 c -0.19497,2.04185 0.20363,3.72977 1,4.23468 1.49477,0.94771 188.78686,1.20547 191.24239,0.26319 z"
       id="path1" /></g></svg>
