<?xml version="1.0" encoding="UTF-8" standalone="no"?>
<!-- Created with Inkscape (http://www.inkscape.org/) -->

<svg
   width="93.664688mm"
   height="68.262497mm"
   viewBox="0 0 354.00825 257.99997"
   version="1.1"
   id="svg1"
   xml:space="preserve"
   inkscape:version="1.4 (e7c3feb100, 2024-10-09)"
   sodipodi:docname="stove.svg"
   xmlns:inkscape="http://www.inkscape.org/namespaces/inkscape"
   xmlns:sodipodi="http://sodipodi.sourceforge.net/DTD/sodipodi-0.dtd"
   xmlns="http://www.w3.org/2000/svg"
   xmlns:svg="http://www.w3.org/2000/svg"><sodipodi:namedview
     id="namedview1"
     pagecolor="#505050"
     bordercolor="#ffffff"
     borderopacity="1"
     inkscape:showpageshadow="0"
     inkscape:pageopacity="0"
     inkscape:pagecheckerboard="1"
     inkscape:deskcolor="#505050"
     inkscape:document-units="mm"
     inkscape:clip-to-page="false"
     inkscape:zoom="2.078763"
     inkscape:cx="232.83078"
     inkscape:cy="193.62477"
     inkscape:window-width="1920"
     inkscape:window-height="1006"
     inkscape:window-x="0"
     inkscape:window-y="0"
     inkscape:window-maximized="1"
     inkscape:current-layer="layer1" /><defs
     id="defs1"><inkscape:path-effect
       effect="offset"
       id="path-effect8"
       is_visible="true"
       lpeversion="1.3"
       linejoin_type="miter"
       unit="mm"
       offset="-4"
       miter_limit="4"
       attempt_force_join="false"
       update_on_knot_move="true" /><inkscape:path-effect
       effect="offset"
       id="path-effect7"
       is_visible="true"
       lpeversion="1.3"
       linejoin_type="extrp_arc"
       unit="mm"
       offset="-5.6"
       miter_limit="4"
       attempt_force_join="false"
       update_on_knot_move="true" /></defs><g
     inkscape:label="Layer 1"
     inkscape:groupmode="layer"
     id="layer1"
     transform="translate(-76.43099,-634.06352)"><path
       style="fill:#000000"
       d="m 82.374754,889.36019 c -6.271611,-5.27721 -5.94075,1.75668 -5.94075,-126.29668 0,-128.05336 -0.330861,-121.01947 5.94075,-126.29668 l 3.2127,-2.70331 H 252.86283 420.13821 l 3.39788,2.26993 c 7.40198,4.94484 6.8946,-4.36294 6.89633,126.51218 0.002,128.29225 0.33291,121.23693 -5.93919,126.51456 l -3.2127,2.70331 H 253.43399 85.587454 Z M 372.43398,836.44106 c 0,-43.10657 0.17017,-48.48122 1.5,-47.37755 0.86459,0.71754 1.5,0.81473 1.5,0.22943 0,-0.5585 -0.675,-1.27448 -1.5,-1.59106 -1.31438,-0.50438 -1.5,-9.61269 -1.5,-73.60698 V 641.06352 H 230.6565 c -126.70123,0 -142.01382,0.16553 -143.999991,1.5567 l -2.222506,1.5567 v 118.88659 118.88658 l 2.222506,1.5567 c 1.986171,1.39117 17.298761,1.55671 143.999991,1.55671 H 372.43398 Z M 112.684,870.40122 c -2.87397,-1.15967 -1.1461,-5.34338 4.75,-11.50127 3.3,-3.44652 6,-6.42469 6,-6.61815 0,-0.19346 -1.11023,-1.80733 -2.46718,-3.58639 -9.47055,-12.41653 -11.5402,-32.83724 -4.82751,-47.63191 0.87342,-1.925 2.75953,-5.30742 4.19136,-7.51649 1.43183,-2.20908 3.17889,-4.90907 3.88236,-6 0.70347,-1.09093 1.53531,-2.73987 1.84854,-3.66431 0.31323,-0.92444 1.19247,-1.44175 1.95388,-1.14957 0.76141,0.29218 4.26528,-1.28822 7.78639,-3.51199 7.28952,-4.60376 15.8623,-7.15763 24.0265,-7.15763 5.71372,0 6.78087,0.77977 4.10566,3 -0.825,0.68469 -1.5,1.86479 -1.5,2.62244 0,1.71991 -1.65193,1.80924 -2.35863,0.12756 -0.37617,-0.89515 -0.83975,-0.75321 -1.63302,0.5 -0.60925,0.9625 -2.22457,1.75 -3.58959,1.75 -3.28639,0 -14.50023,3.79689 -16.4975,5.58589 -2.28819,2.04958 -2.74477,1.78968 -3.22525,-1.83589 -0.31871,-2.405 -0.42462,-2.08 -0.40731,1.25 0.0175,3.37189 0.64227,5.17308 2.49208,7.18492 1.84712,2.00889 2.30661,3.33076 1.82491,5.25 -0.82769,3.29779 -3.54358,3.32454 -6.60569,0.0651 -3.0614,-3.2587 -4.07135,-3.14173 -6.58227,0.76238 -4.37697,6.80554 -5.91965,12.77241 -5.87859,22.73762 0.0427,10.35507 2.18399,17.68968 6.86079,23.5 l 2.41473,3 2.16525,-2.75 c 2.55072,-3.23957 6.47391,-3.63905 7.98626,-0.8132 0.84433,1.57764 0.47303,2.55117 -2.00232,5.25 l -3.03887,3.3132 2.71512,2.17918 c 8.26049,6.62997 25.10352,9.13806 36.18628,5.38848 3.47951,-1.17721 8.11047,-3.32104 10.29104,-4.76406 l 3.96466,-2.62369 -3.04104,-3.13756 c -3.73497,-3.85352 -3.89717,-6.28937 -0.47597,-7.14804 1.98664,-0.49861 3.24368,0.004 5.57429,2.23095 2.97052,2.83779 3.02898,2.84904 4.54883,0.87474 2.92077,-3.7941 6.38565,-12.35185 7.45192,-18.40517 1.68357,-9.55778 -0.87927,-21.33491 -6.38578,-29.34483 -2.31343,-3.36517 -2.59846,-3.37711 -5.97091,-0.25 -2.97594,2.75945 -4.76976,3.11367 -6.58342,1.3 -1.86458,-1.86457 -1.45996,-3.26495 2.05,-7.09496 3.01066,-3.2852 3.39728,-3.43613 5.25,-2.04953 1.26619,0.94764 3.32375,1.32734 5.60793,1.03487 3.4387,-0.44028 3.75355,-0.22106 6.71265,4.67384 4.63254,7.6631 6.30988,13.19371 6.90615,22.77129 0.64071,10.29146 -1.5476,18.89135 -7.1848,28.23564 -1.94807,3.22914 -3.54194,6.16823 -3.54194,6.53131 0,0.36308 2.71578,3.34606 6.03507,6.62884 6.2202,6.1518 7.10753,8.73481 3.72831,10.85302 -1.45661,0.91305 -2.85167,-0.0179 -8.65184,-5.77364 l -6.9152,-6.86221 -3.46171,2.64037 c -4.73315,3.61015 -14.20637,7.32137 -21.81709,8.54704 -11.18682,1.80158 -25.82722,-1.81593 -34.68165,-8.56954 l -3.36685,-2.56802 -6.83729,6.60084 c -6.787,6.5523 -7.37542,6.90953 -9.78174,5.93856 z m 28.41667,-88.83771 c 0,-0.825 -0.375,-1.5 -0.83334,-1.5 -0.45833,0 -0.83333,0.675 -0.83333,1.5 0,0.825 0.375,1.5 0.83333,1.5 0.45834,0 0.83334,-0.675 0.83334,-1.5 z m 19.69495,-7 c 0.31659,-0.825 0.18788,-1.5 -0.28602,-1.5 -0.47389,0 -1.12065,0.675 -1.43723,1.5 -0.31658,0.825 -0.18787,1.5 0.28602,1.5 0.4739,0 1.12065,-0.675 1.43723,-1.5 z m -5.86162,-0.5 c 0.33992,-0.55 0.14147,-1 -0.44098,-1 -0.58246,0 -1.05902,0.45 -1.05902,1 0,0.55 0.19844,1 0.44098,1 0.24254,0 0.7191,-0.45 1.05902,-1 z m 92.24999,95.91989 c -3.07142,-1.78894 -1.9134,-4.44598 4.70937,-10.80549 l 6.45937,-6.20261 -3.54015,-5.53414 c -4.16693,-6.51396 -7.1678,-14.73286 -8.01683,-21.95678 -1.11305,-9.47031 2.29454,-22.84958 7.93723,-31.16404 1.70757,-2.51609 2.91639,-3.2447 5.39199,-3.25 1.75504,-0.004 3.46491,-0.45006 3.79971,-0.99178 0.37466,-0.60621 -0.5086,-0.76147 -2.29707,-0.40378 -1.94852,0.3897 -3.07598,0.13767 -3.42239,-0.76506 -0.91326,-2.37992 -0.77769,-3.34308 0.48995,-3.48086 0.68135,-0.0741 1.76679,-0.18656 2.41209,-0.25 0.64531,-0.0634 2.54859,-1.27261 4.22953,-2.68702 1.68094,-1.41442 3.51547,-2.28786 4.07673,-1.94099 0.56126,0.34688 1.02047,0.16171 1.02047,-0.41148 0,-1.20641 9.18994,-6.07586 11.46675,-6.07586 1.51029,0 1.78325,0.53573 1.78325,3.5 0,0.825 -0.0562,1.91701 -0.125,2.42669 -0.0688,0.50968 -2.4875,2.03342 -5.375,3.38608 -2.8875,1.35266 -6.15,3.15223 -7.25,3.99903 -1.97497,1.52036 -1.96442,1.57688 0.84236,4.51504 3.04697,3.18958 3.20084,5.80185 0.44401,7.53791 -1.36893,0.86206 -2.2851,0.53161 -4.55471,-1.64282 -1.56261,-1.49706 -3.33453,-2.72194 -3.9376,-2.72194 -0.60308,0 -2.09858,1.6875 -3.32333,3.75 -8.06137,13.5755 -7.96006,32.13791 0.24045,44.05694 l 3.00189,4.3631 2.78554,-2.66871 c 3.12227,-2.99133 7.26837,-3.11664 7.8174,-0.23627 0.18504,0.97078 -0.83618,3.15863 -2.26937,4.86188 -3.29946,3.92118 -2.46077,5.1125 6.45336,9.16667 4.89688,2.22713 8.51835,3.08248 14.68362,3.46812 9.27723,0.58031 15.21348,-0.88698 24.14681,-5.96847 l 5.33043,-3.03208 -3.17412,-3.27486 c -3.61413,-3.72883 -3.66415,-6.81606 -0.11861,-7.32001 1.52861,-0.21727 3.37326,0.64884 5.28712,2.48243 3.41188,3.2688 3.2598,3.3926 8.16773,-6.64874 2.98413,-6.10537 3.17701,-7.16928 3.17701,-17.5237 0,-10.60985 -0.13139,-11.28426 -3.5,-17.9642 -1.925,-3.81728 -4.00584,-7.08773 -4.6241,-7.26767 -0.61826,-0.17994 -2.57844,0.89657 -4.35596,2.39225 -2.5009,2.10437 -3.60368,2.48529 -4.87589,1.68419 -2.67413,-1.68386 -2.51342,-4.32589 0.45137,-7.42046 2.73649,-2.85628 2.74972,-2.92944 0.84237,-4.6583 -1.06578,-0.96605 -3.16641,-2.30203 -4.66807,-2.96886 -1.95422,-0.86779 -2.56696,-1.71848 -2.15567,-2.99282 0.43488,-1.34744 0.33887,-1.45044 -0.39479,-0.42353 -1.49247,2.08901 -6.72306,0.52755 -8.05968,-2.40601 -1.25915,-2.76354 -2.76741,-3.08597 -5.08083,-1.08617 -0.86831,0.75059 -3.26624,1.6223 -5.32874,1.93713 -3.74551,0.57173 -3.75,0.5681 -3.75,-3.03138 0,-4.34323 -1.09082,-3.78099 -1.21615,0.62683 -0.0707,2.48632 -0.51771,3.10271 -2.25018,3.10271 -1.7605,0 -2.15005,-0.57021 -2.09782,-3.07072 0.0917,-4.38771 2.35759,-5.24201 12.43371,-4.68774 11.17427,0.61468 19.31243,3.33101 20.24838,6.75846 0.42725,1.56456 0.71999,1.84519 0.78238,0.75 0.12732,-2.23526 0.65935,-2.19974 4.1365,0.27622 2.06932,1.47349 2.92981,3.01441 3.15437,5.64872 0.3552,4.1668 2.98892,6.54494 5.01002,4.52384 1.00835,-1.00835 0.76774,-1.20126 -1.21924,-0.97752 -1.93281,0.21763 -2.54864,-0.23261 -2.8091,-2.05373 -0.18347,-1.28286 0.44732,-3.19536 1.40175,-4.25 1.79649,-1.98509 4.01526,-2.681 2.92537,-0.91753 -0.33991,0.55 -0.0933,1 0.54798,1 0.66333,0 0.89837,-0.69744 0.54521,-1.61778 -0.80472,-2.09706 7.34129,-10.38222 10.20785,-10.38222 2.61272,0 3.70145,3.22253 2.00595,5.93745 -1.81022,2.89863 -2.80699,2.56574 -2.80699,-0.93745 0,-1.65 -0.36822,-3 -0.81828,-3 -0.45005,0 -0.68267,1.71432 -0.51693,3.8096 0.25256,3.19277 -0.26262,4.40753 -3.18171,7.50232 -1.91569,2.03099 -3.48308,4.12604 -3.48308,4.65567 0,0.52962 1.35154,3.0941 3.00342,5.69885 9.99485,15.76024 10.3586,35.06948 0.95438,50.66189 -2.17679,3.60916 -3.9578,6.93835 -3.9578,7.39819 0,0.45984 2.7,3.5079 6,6.77347 6.39466,6.32794 7.28118,8.74397 3.87693,10.56587 -1.89726,1.01538 -2.83915,0.42564 -8.85564,-5.54475 l -6.73256,-6.68097 -5.69188,3.64105 c -10.27864,6.57517 -21.55034,9.08263 -33.32985,7.41445 -7.16831,-1.01516 -19.08245,-5.92926 -21.88592,-9.02707 -0.93008,-1.02772 -2.11547,-1.86858 -2.63421,-1.86858 -0.51874,0 -3.89707,2.925 -7.5074,6.5 -3.61033,3.575 -6.82867,6.48631 -7.15185,6.46959 -0.32319,-0.0167 -1.37511,-0.48909 -2.33761,-1.04969 z m 21.26328,-83.95196 c 1.74323,-4.20854 0.84661,-4.48614 -1.13681,-0.35197 -0.89295,1.86122 -1.28504,3.38404 -0.87132,3.38404 0.41371,0 1.31737,-1.36443 2.00813,-3.03207 z m 63.98671,-0.96793 c 0,-0.55 -0.19844,-1 -0.44098,-1 -0.24254,0 -0.7191,0.45 -1.05902,1 -0.33991,0.55 -0.14147,1 0.44099,1 0.58246,0 1.05901,-0.45 1.05901,-1 z m -13.99999,-2 c 0,-0.55 -0.47656,-1 -1.05902,-1 -0.58246,0 -0.7809,0.45 -0.44098,1 0.33991,0.55 0.81647,1 1.05901,1 0.24254,0 0.44099,-0.45 0.44099,-1 z m -5.39584,-6.72917 c -1.01651,-1.01652 -1.85525,0.51389 -1.02121,1.86338 0.63003,1.01942 0.86557,1.02021 1.2043,0.004 0.23159,-0.69478 0.1492,-1.53512 -0.18309,-1.86741 z M 155.934,833.64059 c -11.40416,-5.11146 -12.15175,-19.56885 -1.30202,-25.17947 3.82949,-1.9803 9.52527,-1.73177 13.26379,0.57876 9.61315,5.94125 8.35569,20.16345 -2.17965,24.6525 -3.96053,1.68756 -5.92466,1.67716 -9.78212,-0.0518 z m 9.9638,-8.53709 c 1.31513,-1.4532 1.60746,-2.84662 1.13054,-5.38881 -1.38243,-7.36898 -11.69837,-7.18323 -12.41468,0.22355 -0.20349,2.10412 0.309,4.00775 1.40499,5.2188 2.28125,2.52075 7.57542,2.49206 9.87915,-0.0535 z m 126.03619,9.14106 c -5.97158,-2.0335 -10.5,-7.9403 -10.5,-13.69603 0,-4.1294 3.79758,-10.01808 7.64328,-11.85196 4.39018,-2.09353 9.787,-2.08268 13.35817,0.0269 3.57343,2.11088 6.99855,8.15903 6.99855,12.35819 0,3.76406 -3.00828,9.10206 -6.37142,11.30567 -2.83439,1.85717 -8.40081,2.78616 -11.12858,1.85727 z m 7.10029,-7.94637 c 0.60517,-0.40408 1.6381,-1.75579 2.29541,-3.00379 1.3688,-2.59888 -0.12725,-6.75881 -3.09293,-8.60026 -2.37665,-1.4757 -6.96449,0.30931 -8.44921,3.28736 -1.27752,2.56245 -0.25618,6.8878 1.959,8.29634 1.5167,0.9644 5.85574,0.97652 7.28773,0.0204 z M 190.74229,789.05391 c -1.20543,-0.48555 -2.95389,-2.04607 -3.88546,-3.46782 -0.93156,-1.42175 -1.93004,-2.34872 -2.21883,-2.05992 -0.28879,0.28879 0.29191,1.42783 1.29045,2.5312 2.44097,2.69725 1.49918,2.52784 -4.20045,-0.75556 -2.6367,-1.51894 -7.494,-3.62346 -10.794,-4.67672 -7.67077,-2.44828 -8.10692,-2.88076 -5.88116,-5.83151 1.81639,-2.40804 1.93152,-2.42431 7.67576,-1.08427 6.19449,1.44508 14.2197,5.3679 16.7054,8.16579 0.825,0.92862 3.17792,2.46406 5.22871,3.41208 6.23433,2.88194 2.58579,6.38745 -3.92042,3.76673 z M 169.934,778.06351 c 0.33992,-0.55 0.14147,-1 -0.44099,-1 -0.58246,0 -1.05901,0.45 -1.05901,1 0,0.55 0.19844,1 0.44098,1 0.24254,0 0.7191,-0.45 1.05902,-1 z m -49.46435,7.54295 c -0.95799,-1.15431 -0.87955,-1.92773 0.37756,-3.7225 0.87273,-1.24601 1.56877,-2.72784 1.54675,-3.29296 -0.022,-0.56512 -0.71139,0.21001 -1.53193,1.72251 -0.82055,1.5125 -1.87517,2.75 -2.3436,2.75 -0.46844,0 -2.48857,-1.81182 -4.48919,-4.02627 -3.02979,-3.35361 -3.46102,-4.35601 -2.58118,-6 1.67559,-3.13086 4.04298,-2.34908 9.64761,3.18593 5.13961,5.07577 5.20068,5.20584 3.75577,8 -1.65172,3.19405 -2.6242,3.50106 -4.38179,1.38329 z m 77.5784,-0.10634 c -0.32996,-0.85986 -0.96209,-1.33955 -1.40474,-1.06598 -0.44264,0.27357 -1.41985,0.11728 -2.17158,-0.34731 -1.05127,-0.64972 -0.40544,-1.82542 2.79775,-5.09316 2.29048,-2.33664 4.16451,-3.72683 4.16451,-3.0893 0,0.63752 0.40788,1.15914 0.90638,1.15914 0.49851,0 0.69223,-0.81894 0.43048,-1.81986 -0.26174,-1.00092 0.22293,-2.39983 1.07705,-3.10869 3.08272,-2.55843 4.24156,5.94349 1.31922,9.67855 -1.35985,1.73802 -2.79204,1.5671 -2.09475,-0.25 0.31838,-0.8297 0.0288,-1.5 -0.64802,-1.5 -0.70011,0 -1.01575,0.7949 -0.73775,1.85796 0.52311,2.00038 -0.81817,5.14204 -2.19531,5.14204 -0.46382,0 -1.11328,-0.70353 -1.44324,-1.56339 z m 52.03321,-5.28218 c -3.79023,-3.85193 -4.70601,-5.39401 -4.18261,-7.04308 0.64145,-2.02103 2.41085,-2.93022 2.64936,-1.36135 0.0627,0.4125 0.26475,2.03954 0.44898,3.61564 0.54221,4.6388 1.70085,4.53365 1.27418,-0.11564 -0.21452,-2.3375 -0.16619,-4.25 0.1074,-4.25 0.72614,0 12.05542,11.32609 12.05542,12.05203 0,0.33805 -0.5625,0.63314 -1.25,0.65577 -0.6875,0.0226 -2.375,0.34202 -3.75,0.70975 -2.09025,0.55903 -3.29537,-0.1397 -7.35273,-4.26312 z m 50.04658,-0.79391 c -0.93324,-0.93325 0.19452,-2.36052 1.86516,-2.36052 0.79254,0 1.44099,0.675 1.44099,1.5 0,1.50623 -2.11099,2.05567 -3.30615,0.86052 z m -92.39302,-5.37449 c -0.90356,-2.39382 -0.8602,-2.98603 0.21865,-2.98603 1.65089,0 3.01431,3.86621 1.79383,5.08669 -0.51383,0.51383 -1.35836,-0.36771 -2.01248,-2.10066 z M 111.634,753.86351 c -1.93076,-1.93076 -1.54009,-2.64219 5.39632,-9.82706 l 6.59632,-6.8326 -2.94965,-4.32017 c -7.45279,-10.91564 -10.04163,-23.2146 -7.74628,-36.80066 0.88785,-5.25514 4.86399,-14.44727 8.09007,-18.70278 1.32727,-1.75081 2.41322,-3.40644 2.41322,-3.67919 0,-0.27276 -2.7,-3.07128 -6,-6.21895 -6.13732,-5.85401 -7.40402,-9.00846 -4.56392,-11.36553 1.86522,-1.548 4.16666,-0.32321 8.72726,4.64449 7.17788,7.81864 7.25078,7.85111 11.07561,4.93377 15.07357,-11.49717 40.28981,-11.72366 55.78222,-0.50102 l 4.23152,3.0653 6.88703,-6.83425 c 5.7759,-5.73164 7.1672,-6.65862 8.62365,-5.74567 3.37922,2.11822 2.49189,4.70123 -3.72831,10.85302 -3.31929,3.28278 -6.03507,6.26576 -6.03507,6.62885 0,0.36308 1.59387,3.30216 3.54194,6.5313 1.94806,3.22913 4.48254,8.96017 5.63218,12.73565 3.84115,12.61461 1.22717,29.25963 -6.20661,39.52166 -1.63213,2.25309 -2.96751,4.3997 -2.96751,4.77025 0,0.37055 2.73204,3.51885 6.07118,6.99623 6.6222,6.89633 7.61336,10.53846 3.04376,11.18461 -1.81559,0.25672 -3.88105,-1.14544 -8.65062,-5.87262 l -6.26556,-6.20986 -5.84937,3.59298 c -8.14506,5.00311 -13.55557,6.7401 -22.96303,7.37209 -11.78302,0.79156 -19.86522,-1.55886 -32.52533,-9.45885 -2.63012,-1.64122 -2.6603,-1.62595 -8.98732,4.54613 -6.38829,6.23186 -8.46383,7.20274 -10.6737,4.99288 z m 65.3,-10.56755 c 3.3,-1.44305 6.9916,-3.37152 8.20356,-4.28549 l 2.20357,-1.66175 -2.95357,-2.8297 c -3.14652,-3.01455 -3.70087,-5.30821 -1.75356,-7.25551 1.81404,-1.81404 3.6076,-1.45934 6.58612,1.30251 1.48436,1.37637 3.14045,2.3553 3.68019,2.17538 2.1326,-0.71086 6.80492,-10.48252 8.29465,-17.3474 1.34641,-6.2044 1.38917,-8.28271 0.29623,-14.39844 -1.13013,-6.32379 -5.482,-16.69177 -8.14348,-19.40119 -0.6105,-0.6215 -1.87551,0.0268 -3.52653,1.80739 -1.81153,1.95365 -3.35925,2.68542 -5.22231,2.46914 -3.8674,-0.44897 -3.93221,-3.42048 -0.15951,-7.31292 l 3.19273,-3.29407 -4.83599,-2.83407 c -11.67818,-6.84387 -23.61274,-8.17704 -35.53348,-3.96931 -3.66926,1.29516 -8.06889,3.34994 -9.77695,4.56619 l -3.10558,2.21137 3.03725,3.45923 c 2.47968,2.8242 2.84532,3.81783 1.99176,5.41271 -1.5212,2.8424 -5.43721,2.45227 -7.99519,-0.79652 l -2.16525,-2.75 -2.41473,3 c -4.6768,5.81032 -6.81813,13.14494 -6.86079,23.5 -0.0411,9.96521 1.50162,15.93208 5.87859,22.73762 2.51092,3.90411 3.52087,4.02109 6.58227,0.76238 2.81437,-2.99576 4.12916,-3.11975 6.40583,-0.60406 1.63477,1.80641 1.57126,2.06056 -1.34502,5.38201 -1.68344,1.91735 -3.06081,3.7452 -3.06081,4.06191 0,1.34394 10.00318,6.28251 16,7.89921 8.5511,2.30531 18.33328,1.56458 26.5,-2.00662 z m -22,-25.39943 c -8.88381,-4.91346 -10.63598,-14.90655 -3.85475,-21.98463 3.71085,-3.87329 8.23229,-5.22772 13.08729,-3.92041 11.62354,3.1299 13.94907,18.77944 3.72923,25.09565 -3.50372,2.16542 -9.79922,2.55854 -12.96177,0.80939 z m 8.90383,-6.97116 c 3.27505,-1.49221 4.33199,-6.0899 2.1615,-9.4025 -1.92514,-2.93812 -6.92262,-3.35098 -9.73659,-0.80437 -2.62727,2.37765 -2.4081,7.8258 0.39376,9.78831 2.6501,1.8562 3.87002,1.9273 7.18133,0.41856 z m 82.05841,42.01919 c -0.54058,-1.70322 0.65559,-3.45733 6.09671,-8.94047 l 6.76924,-6.82151 -2.51981,-3.30953 c -12.10797,-15.90267 -12.69878,-37.43604 -1.50714,-54.93138 l 3.56324,-5.57024 -6.43225,-6.37507 c -6.78166,-6.72139 -7.75156,-9.1564 -4.36832,-10.96705 2.40302,-1.28606 2.5495,-1.18849 10.67632,7.11112 l 5.58205,5.70073 2.08886,-2.01295 c 3.56451,-3.435 15.78207,-8.69392 22.23365,-9.57025 12.48311,-1.6956 26.35739,1.68649 36.47613,8.89167 l 2.99348,2.13155 6.90369,-6.66495 c 6.04217,-5.83322 7.15814,-6.52876 8.94279,-5.57364 3.3127,1.7729 2.40336,4.09954 -4.2109,10.77406 l -6.25,6.30695 1.94154,3.21996 c 8.26643,13.70954 10.61813,23.24355 8.80382,35.69148 -1.19739,8.21529 -3.01069,13.00089 -7.46777,19.70864 -1.52767,2.2991 -2.77759,4.79983 -2.77759,5.55717 0,0.75734 2.7,3.98865 6,7.18069 6.19864,5.99584 6.41033,6.34911 5.39301,9.00018 -1.41905,3.698 -5.01327,1.49255 -16.75802,-10.28288 -11.92819,-11.95934 -13.18144,-14.13234 -9.49094,-16.4562 1.27221,-0.80109 2.37499,-0.42018 4.87589,1.68419 1.77752,1.49568 3.7377,2.57219 4.35596,2.39225 0.61826,-0.17994 2.6991,-3.45039 4.6241,-7.26766 3.36861,-6.67994 3.5,-7.35435 3.5,-17.96421 0,-10.35442 -0.19288,-11.41833 -3.17701,-17.5237 -4.90793,-10.04133 -4.75585,-9.91753 -8.16773,-6.64874 -1.91386,1.83359 -3.75851,2.69971 -5.28712,2.48244 -3.54554,-0.50395 -3.49552,-3.59118 0.11861,-7.32002 l 3.17412,-3.27486 -5.33043,-2.96731 c -9.20395,-5.1236 -11.72468,-5.77276 -22.33043,-5.75077 -9.20117,0.0191 -10.52862,0.27772 -16.61745,3.23782 -8.97863,4.36498 -9.73448,5.41496 -6.43915,8.94479 3.23859,3.46905 3.02265,6.68396 -0.47636,7.09213 -1.68389,0.19643 -3.33456,-0.55778 -4.92432,-2.25 -1.31524,-1.40001 -2.70125,-2.54548 -3.08002,-2.54548 -0.37877,0 -2.41278,3.39677 -4.52002,7.54836 -3.38998,6.67879 -3.88005,8.56688 -4.25406,16.38959 -0.31729,6.63653 0.0146,10.17792 1.33102,14.20164 2.11961,6.47877 6.25803,13.86041 7.77066,13.86041 0.60515,0 2.37875,-1.22487 3.94136,-2.72194 2.26961,-2.17443 3.18578,-2.50488 4.55471,-1.64282 2.75683,1.73606 2.60296,4.34833 -0.44401,7.53791 -2.80678,2.93817 -2.81733,2.99468 -0.84236,4.51505 6.75559,5.20057 20.3237,8.93633 28.41475,7.82352 l 4.64704,-0.63913 -0.0309,3.8137 -0.0309,3.81371 -6.5,0.3281 c -10.46514,0.52826 -19.64912,-2.04968 -28.68018,-8.05052 -2.29909,-1.52767 -4.56318,-2.77758 -5.0313,-2.77758 -0.46812,0 -3.52295,2.7 -6.78852,6 -6.34701,6.41393 -9.84363,7.6434 -11.03775,3.88105 z m 60.98712,-3.22673 c -0.87915,-3.50281 -0.37339,-4.03341 7.24073,-7.59649 l 6.68796,-3.12967 2.36228,2.54761 c 1.99479,2.1513 2.11975,2.64068 0.80325,3.14587 -0.85747,0.32905 -2.70107,-0.15003 -4.0969,-1.06461 -2.70875,-1.77484 -5.46021,-1.40066 -7.94077,1.07991 -1.72484,1.72483 -2.02801,5.36306 -0.44691,5.36306 0.58246,0 0.84737,-0.34246 0.58868,-0.76103 -0.62389,-1.00948 1.46631,-3.77887 3.35231,-4.44161 1.63378,-0.57412 5,0.80292 5,2.04537 0,0.87827 -6.14998,3.70642 -10.20648,4.6936 -2.31624,0.56367 -2.79843,0.2923 -3.34415,-1.88201 z m -18.34723,-32.54838 c -6.18748,-3.29641 -8.64629,-11.04962 -5.56409,-17.54488 6.3933,-13.47288 26.48128,-8.81122 26.45536,6.13928 -0.0177,10.21013 -11.43506,16.44344 -20.89127,11.4056 z m 10.01147,-6.16674 c 2.85717,-1.52911 4.08832,-5.40189 2.6917,-8.46714 -1.34091,-2.94297 -4.99709,-4.14008 -8.69574,-2.84715 -2.16283,0.75605 -2.66143,1.62057 -2.91249,5.04989 -0.2467,3.36984 0.11934,4.43342 1.97251,5.73143 2.66549,1.86698 4.22739,1.98686 6.94402,0.53297 z m 121.66387,172.50408 2.22251,-1.5567 V 763.06351 644.17692 l -2.22251,-1.5567 c -1.82495,-1.27824 -5.67083,-1.5567 -21.5,-1.5567 h -19.27749 v 61.49999 c 0,57.89893 -0.10247,61.50089 -1.75,61.51531 -0.9625,0.008 -2.425,0.45779 -3.25,0.9986 -1.06663,0.69921 -0.56103,0.80312 1.75,0.35969 2.99965,-0.57557 3.25,-0.42139 3.25,2.0014 0,1.62083 -0.55212,2.625 -1.4433,2.625 -2.17783,0 -4.5567,4.0316 -4.5567,7.7225 0,3.1692 2.8226,7.2775 5,7.2775 1.85772,0 1.12595,4.99165 -0.75,5.116 -1.66667,0.11047 -1.66667,0.13777 0,0.57332 1.63531,0.42735 1.75,3.53281 1.75,47.384 v 46.92667 h 19.27749 c 15.82917,0 19.67505,-0.27846 21.5,-1.55671 z m -26.47894,-28.40281 c -10.75241,-6.55612 -6.98751,-23.06536 5.64647,-24.75993 6.74098,-0.90416 13.82865,4.61315 14.74994,11.48191 1.49053,11.11271 -10.81228,19.12181 -20.39641,13.27802 z m 11.66249,-7.22904 c 3.8753,-4.15964 1.30555,-9.81144 -4.46104,-9.81144 -5.74579,0 -8.46261,6.03739 -4.5,10 2.62098,2.62098 6.41799,2.54108 8.96104,-0.18856 z m -7.46104,-44.58396 c -8.8122,-2.0312 -13.20431,-12.87155 -8.2368,-20.32959 4.94511,-7.42441 13.58064,-8.60793 20.2272,-2.77217 9.95947,8.74453 0.95857,26.08647 -11.9904,23.10176 z m 7.5,-9.22748 c 5.23283,-5.23283 -1.03056,-12.22791 -8.41247,-9.39521 -0.86682,0.33263 -1.32707,1.00763 -1.02277,1.5 0.3043,0.49237 0.0767,0.89522 -0.50574,0.89522 -1.81706,0 -1.15827,4.90074 0.94098,6.99999 1.1,1.1 3.125,2 4.5,2 1.375,0 3.4,-0.9 4.5,-2 z m -29.34501,-11.82874 c -2.27915,-2.51843 -2.09989,-7.45865 0.35114,-9.6768 2.60652,-2.35887 3.70764,-1.19667 1.96004,2.06876 -1.08313,2.02385 -1.11836,2.96344 -0.16818,4.48493 1.39079,2.22701 1.58724,4.95186 0.357,4.95186 -0.46476,0 -1.58976,-0.82294 -2.5,-1.82875 z m 2.42396,-4.75459 c 0.048,-1.16494 0.28494,-1.4019 0.60416,-0.60416 0.28888,0.72187 0.25335,1.58437 -0.0789,1.91666 -0.33229,0.33229 -0.56864,-0.25833 -0.52522,-1.3125 z m 17.42105,-28.78064 c -4.79104,-2.20552 -7.67768,-6.03278 -8.22719,-10.90804 -0.93197,-8.26836 4.95251,-14.89465 13.22719,-14.89465 10.31848,0 16.82687,11.19818 11.544,19.86233 -3.67761,6.03146 -10.79477,8.58698 -16.544,5.94036 z m 10.08718,-9.12874 c 3.39836,-5.18655 -1.40837,-11.01129 -7.35965,-8.91834 -6.44614,2.26699 -4.62513,11.41106 2.27247,11.41106 2.57798,0 3.8681,-0.63216 5.08718,-2.49272 z m -9.58718,-44.32756 c -3.9405,-1.78561 -6.94805,-4.59193 -7.92518,-7.39492 -3.4338,-9.85023 2.57657,-18.79094 12.62552,-18.78106 8.05513,0.008 14.08353,7.1154 12.98456,15.30879 -1.05952,7.89936 -10.89577,13.94363 -17.6849,10.86719 z m 9.94805,-10.38389 c 1.3937,-2.49444 1.34969,-2.92101 -0.56748,-5.5 -4.06758,-5.47173 -10.78057,-3.50752 -10.78057,3.15438 0,4.35183 1.58187,5.67096 6.36858,5.31078 2.58021,-0.19414 3.85555,-0.95358 4.97947,-2.96516 z"
       id="path9" /></g></svg>
